<svg version="1.2" xmlns="http://www.w3.org/2000/svg" viewBox="0 0 1331 749" width="1331" height="749"><style>.s0{fill:#e7f3fe}.s1{fill:#75a1de}.s2{fill:#f09959}.s3{fill:#e38540}.s4{fill:#a2dff2}.s5{fill:#96cfe0}.s6{fill:#ffffff}.s7{fill:#6791c9}.s8{fill:#95bef5}.s9{fill:#2e5b9a}.s10{opacity: .5;fill:#2e5b9a}.s11{fill:#9ec8ff}.s12{fill:#f39892}.s13{fill:#9cd499}.s14{fill:#74b570}</style><path class="s0" d="m178 728.1q-276.5-497.9-69.5-614.1c165.1-92.6 309.9 69.6 486.6-43.4c227.9-145.7 400.7-48.2 524.2 133.2c92.7 136.2 141.8 224.2 188.3 330.2q72.4 165.1-81.1 202.8z" /><path class="s1" d="m941.8 731.3l-126 0.3c-1.8 0-3.3-1.9-3.4-4.1c-0.1-2.2 1.2-4.2 3-4.4l125.5-11.2c10.2-0.9 19.5 3 19.7 8.8c0.3 5.8-8.6 10.6-18.8 10.6z" /><path class="s2" d="m607.5 700.1l53.8-62.2q38.6 20 129.6 50.7q-7.9 23.8-12.3 24.9c-3.2 0.8-102 3.9-171.1-13.4z" /><path class="s2" d="m764.6 679.2c22.4 5.8 58-8.7 64.7-7.2c6.7 1.4 34.5 15.9 41.2 23.1c6.6 7.3 30.2 29.7 26 31.2c-4.2 1.4-33.9-20.3-37.5-21c-3.7-0.7-5.5 4.3-35.1 10.1q-29.7 5.8-65.6-9.1z" /><path class="s3" d="m800.3 701.7q34.5-8.7 38.7-7.3c4.2 1.5 30 7.3 47.8 27.5c-16.9-5-41.1-6.5-47.8-6.5q-6.7 0-38.7-13.7z" /><path class="s2" d="m808.5 687.2c14.7 18.8 52.1 24.6 57.8 31.1c5.7 6.5-13.6 3.8-23.8 2.9c-25.9-2.2-44 8.3-65 1.8q-20.9-6.5-25.7-22.1z" /><path class="s4" d="m588.6 360.7c25 17.3 54.3 55.3 75 153.1q21.6 102.3 25.6 231.7q-211.4-8-285.2-10.1c-10.9-63-9.8-147.8 10.8-236.8c20.7-89.1 51.1-113 117.6-145.6q31.2-9.7 56.2 7.7z" /><path class="s5" d="m662.4 677.4c-191.9 29-195.2 55.1-255.3 60.3c-1.5 0.2-2.9-0.8-3.1-2.3c-4.6-26.4-7-56.5-6.8-89.1l22-113l72.8-135.7c39.1 72.8 32.6 234.6 56.4 258.5c16.2 16.2 118.5 20.6 114 21.3z" /><path class="s6" d="m538.1 350.1q50.2 8.7 56.5 18.8c6.2 10.2 7.7 27.1 9.1 43c1.5 15.9-14.9 27-42 6.8c-27-20.3-44.1-46-35.7-65.7q1.5-3.4 12.1-2.9z" /><path class="s2" d="m619.7 269.7l-29 102.1q14.5 40.6-7.2 46.4c-16.2 4.3-38.8-28.3-49.3-45.2c-3.7-6-4.4-13.4-1.8-20l25.7-98.5z" /><path class="s3" d="m611.7 295.8l-21 76q5.5 15.5 4.6 28.7c-16.7-9.7-27.6-44.6-31.1-130.2l7.7-20.1l25.7 10.4z" /><path class="s2" d="m669.1 299.2c-5 34-18.4 63.1-42.7 59.5c-24.3-3.6-65.9-32-60.9-66c5-34 59.5-74.7 83.8-71.1c24.2 3.6 24.8 43.6 19.8 77.6z" /><path class="s2" d="m432.1 623.1q19.9 13.4 138 11.2q11.9 32.6 7.6 33.7c-4.4 1.1-215 46.7-234.5 12c-17-30.2 58.6-197.3 107.3-259.2c4.9-6.2 35.8-1.6 33.9 6.1c-14.7 58.5 9.6 80-52.3 196.2z" /><path class="s4" d="m509.3 498.6q-12.7 41.2-53.3 93.8q-17-5.4-34.6-11.3q-42.4-14.1-55.4-17.3q55.3-148.7 106.4-171.6c31.5-14.2 53.4 53.3 36.9 106.4z" /><path class="s6" d="m376.1 538.5c7.5 0.8 17.3 1.9 30.2 3.7c31.8 4.5 53.7 21.3 63.7 30.7c-2.9 4.3-5.5 8-7.7 11.1c-14.5-11.4-43.1-28-90.9-34.2c1.4-3.3 2.9-7.1 4.7-11.3z" /><path class="s6" d="m447.3 536.4c12.4 5.4 24.6 16.3 31.5 23.1q-1.6 2.6-3.2 5q-1.4-1.7-3.2-3.9c-10.1-12.5-50.4-32.9-92.4-31.3q1.2-2.6 2.4-5.4c3.3 0.1 39.6 1.5 64.9 12.5z" /><path class="s1" d="m663.8 676.9h-53.5l-8-100h70.2z" /><path class="s2" d="m563.6 634.7c14.8-0.4 39.1-17.4 47.4-22.1c8.3-4.7 55.4-14.8 57.6-9.8q2.1 5.1-39.5 15.6l31.1 1.4q9.1 13.8 9.8 22.9q0.7 9-2.9 22l-13.8-12.3q-11.2 6.2-25.3 14.5c-14.1 8.3-39.5 3.3-50.3 1.1q-10.9-2.2-36.2-10.1z" /><path class="s3" d="m440.5 606.9q-3.9 7.8-8.4 16.2c0.9 0.6-0.6-1.7-14.4-3.6q-24.2-3.4-48.2 10.5c26.2-19.1 58.4-22.5 71-23.1z" /><path class="s7" d="m1146.1 459.5v250.1c0 13.8-13 25-29.1 25h-74.5c0-7.6 7.2-13.7 16-13.7h51.8c9.5 0 17.3-6.7 17.3-14.9v-246.5z" /><path class="s8" d="m1089.7 670.6l-8.2-1.6c-5.4-1-8.9-5.7-7.7-10.3l64.4-250.3c1.2-4.7 6.7-7.6 12.1-6.6l8.2 1.6c5.4 1 8.9 5.7 7.7 10.3l-64.4 250.3c-1.2 4.7-6.7 7.6-12.1 6.6z" /><path class="s1" d="m1092 671l-1-0.1c-4.2-0.8-6.9-4.4-5.9-8.1l65.4-254.1c0.9-3.6 5.1-5.9 9.3-5.1l0.9 0.2c4.2 0.8 6.9 4.4 6 8l-65.4 254.1c-1 3.6-5.2 5.9-9.3 5.1z" /><path class="s9" d="m1263.5 748.9h-1106.7c-5.1 0-9.2-4.2-9.2-9.3c0-5.1 4.1-9.2 9.2-9.2h1106.7c5.1 0 9.2 4.1 9.2 9.2c0 5.1-4.1 9.3-9.2 9.3z" /><path class="s2" d="m604.8 219.1l28 39.9q-28.7-14.1-35.6-7.6c-10.8 10.2-1.9 31.8-1.3 36.2q0.7 4.4-10.1 23.5l-7.6-3.8q-3.2-28.6-5.1-29.2c-1.9-0.7-7 17.8-12.7 30.4c-5.7 12.7-14.7 28.9-22.8 26.1c13.3-57.8-18.5-91.4 31.7-122.5z" /><path class="s10" d="m604.8 219.1l28 39.9q-28.7-14.1-35.6-7.6c-10.8 10.2-1.9 31.8-1.3 36.2q0.7 4.4-10.1 23.5l-7.6-3.8q-3.2-28.6-5.1-29.2c-1.9-0.7-7 17.8-12.7 30.4c-5.7 12.7-14.7 28.9-22.8 26.1c13.3-57.8-18.5-91.4 31.7-122.5z" /><path class="s9" d="m679.1 245.7c-2.5 30.5-49.8 20.9-71.7-6.3c-21-26.1-38.2-8.1-59.1 0.6c-34.9 14.6 4.5-69.8 74.9-56.5c52.9 10 57.6 41.9 55.9 62.2z" /><path class="s2" d="m574.1 278.1c2.2 11.3-2.1 21.7-9.5 23.1c-7.4 1.4-15.1-6.7-17.3-18c-2.2-11.4 2.1-21.7 9.5-23.2c7.4-1.4 15.2 6.7 17.3 18.1z" /><path class="s11" d="m1108.1 345.4h-245.1c-2.8 0-5-2.2-5-5v-141.9c0-2.8 2.2-5.1 5-5.1h245.1c2.8 0 5.1 2.3 5.1 5.1v141.9c0 2.8-2.3 5-5.1 5z" /><path class="s6" d="m1101 340.8h-230.8c-2.4 0-4.4-2-4.4-4.4v-114.1c0-2.5 2-4.5 4.4-4.5h230.8c2.4 0 4.4 2 4.4 4.5v114.1c0 2.4-2 4.4-4.4 4.4z" /><path class="s6" d="m876 210.5h-5.4c-1.2 0-2.1-0.9-2.1-2v-4.5c0-1.1 0.9-2 2.1-2h5.4c1.1 0 2 0.9 2 2v4.5c0 1.1-0.9 2-2 2z" /><path class="s6" d="m893.3 210.5h-5.4c-1.2 0-2.1-0.9-2.1-2v-4.5c0-1.1 0.9-2 2.1-2h5.4c1.1 0 2 0.9 2 2v4.5c0 1.1-0.9 2-2 2z" /><path class="s6" d="m910.6 210.5h-5.4c-1.2 0-2.1-0.9-2.1-2v-4.5c0-1.1 0.9-2 2.1-2h5.4c1.1 0 2 0.9 2 2v4.5c0 1.1-0.9 2-2 2z" /><path fill-rule="evenodd" class="s11" d="m1097.3 333.5h-223.4v-108.4h223.4zm-222.6-0.8h221.8v-106.9h-221.8z" /><path class="s11" d="m1096.9 312h-222.6v-0.8h222.6z" /><path class="s11" d="m1096.9 290.5h-222.6v-0.8h222.6z" /><path class="s11" d="m1096.9 268.9h-222.6v-0.8h222.6z" /><path class="s11" d="m1096.9 247.4h-222.6v-0.8h222.6z" /><path class="s11" d="m1065.5 333.1h-0.8v-107.6h0.8z" /><path class="s11" d="m1033.7 333.1h-0.8v-107.6h0.8z" /><path class="s11" d="m1001.9 333.1h-0.8v-107.6h0.8z" /><path class="s11" d="m970.1 333.1h-0.8v-107.6h0.8z" /><path class="s11" d="m938.3 333.1h-0.8v-107.6h0.8z" /><path class="s11" d="m906.5 333.1h-0.8v-107.6h0.8z" /><path class="s12" d="m1088.5 239.1h-7.5c-2.8 0-5.1-2.4-5.1-5.2c0-2.9 2.3-5.2 5.1-5.2h7.5c2.9 0 5.2 2.3 5.2 5.2c0 2.8-2.3 5.2-5.2 5.2z" /><path class="s12" d="m1091.2 282.5h-12.9c-1.3 0-2.4-1.1-2.4-2.5v-5.4c0-1.3 1.1-2.5 2.4-2.5h12.9c1.4 0 2.5 1.2 2.5 2.5v5.4c0 1.4-1.1 2.5-2.5 2.5z" /><path class="s11" d="m930.4 265.4h-17.6c-1.9 0-3.5-1.6-3.5-3.5v-8.3c0-2 1.6-3.5 3.5-3.5h17.6c1.9 0 3.5 1.5 3.5 3.5v8.3c0 1.9-1.6 3.5-3.5 3.5z" /><path class="s6" d="m927.9 263.2h-12.6c-1.4 0-2.5-1.1-2.5-2.5v-5.9c0-1.4 1.1-2.6 2.5-2.6h12.6c1.4 0 2.6 1.2 2.6 2.6v5.9c0 1.4-1.2 2.5-2.6 2.5z" /><path class="s11" d="m1057.8 329.8h-17.5c-2 0-3.5-1.6-3.5-3.5v-8.3c0-1.9 1.5-3.5 3.5-3.5h17.5c2 0 3.6 1.6 3.6 3.5v8.3c0 1.9-1.6 3.5-3.6 3.5z" /><path class="s6" d="m1055.4 327.7h-12.6c-1.4 0-2.6-1.2-2.6-2.6v-5.9c0-1.4 1.2-2.5 2.6-2.5h12.6c1.4 0 2.5 1.1 2.5 2.5v5.9c0 1.4-1.1 2.6-2.5 2.6z" /><path class="s11" d="m996.2 254.5h-13.7c-1 0-1.7-0.7-1.7-1.7c0-0.9 0.7-1.7 1.7-1.7h13.7c0.9 0 1.7 0.8 1.7 1.7c0 1-0.8 1.7-1.7 1.7z" /><path class="s11" d="m996.2 259.8h-13.7c-1 0-1.7-0.7-1.7-1.7c0-0.9 0.7-1.6 1.7-1.6h13.7c0.9 0 1.7 0.7 1.7 1.6c0 1-0.8 1.7-1.7 1.7z" /><path class="s11" d="m965.8 318.6h-13.8c-0.9 0-1.7-0.8-1.7-1.7c0-0.9 0.8-1.7 1.7-1.7h13.8c0.9 0 1.7 0.8 1.7 1.7c0 0.9-0.8 1.7-1.7 1.7z" /><path class="s11" d="m965.8 323.9h-13.8c-0.9 0-1.7-0.7-1.7-1.7c0-0.9 0.8-1.7 1.7-1.7h13.8c0.9 0 1.7 0.8 1.7 1.7c0 1-0.8 1.7-1.7 1.7z" /><path class="s11" d="m894.5 278.4h-13.8c-0.9 0-1.7-0.7-1.7-1.7c0-0.9 0.8-1.7 1.7-1.7h13.8c0.9 0 1.7 0.8 1.7 1.7c0 1-0.8 1.7-1.7 1.7z" /><path class="s11" d="m894.5 283.7h-13.8c-0.9 0-1.7-0.7-1.7-1.7c0-0.9 0.8-1.6 1.7-1.6h13.8c0.9 0 1.7 0.7 1.7 1.6c0 1-0.8 1.7-1.7 1.7z" /><path class="s11" d="m1027.3 254.5h-13.7c-0.9 0-1.7-0.7-1.7-1.7c0-0.9 0.8-1.7 1.7-1.7h13.7c1 0 1.7 0.8 1.7 1.7c0 1-0.7 1.7-1.7 1.7z" /><path class="s11" d="m1027.3 259.8h-13.7c-0.9 0-1.7-0.7-1.7-1.7c0-0.9 0.8-1.6 1.7-1.6h13.7c1 0 1.7 0.7 1.7 1.6c0 1-0.7 1.7-1.7 1.7z" /><path class="s13" d="m932.5 309.2h-20.3c-1.8 0-3.2-1.5-3.2-3.2v-9.2c0-1.7 1.4-3.2 3.2-3.2h20.3c1.8 0 3.2 1.5 3.2 3.2v9.2c0 1.7-1.4 3.2-3.2 3.2z" /><path class="s6" d="m920.9 306.6q0 0-0.1 0c-0.4 0-0.8-0.2-1.1-0.5l-3.8-4.3c-0.6-0.7-0.5-1.7 0.1-2.3c0.7-0.6 1.7-0.5 2.3 0.1l2.7 3.1l6.9-6.8c0.7-0.6 1.7-0.6 2.3 0c0.6 0.7 0.6 1.7 0 2.3l-8.2 8c-0.3 0.3-0.7 0.4-1.1 0.4z" /><path class="s13" d="m1027.8 243.7h-20.4c-1.8 0-3.2-1.5-3.2-3.2v-9.2c0-1.8 1.4-3.2 3.2-3.2h20.4c1.7 0 3.2 1.4 3.2 3.2v9.2c0 1.7-1.5 3.2-3.2 3.2z" /><path class="s6" d="m1016.1 241.1q0 0 0 0c-0.5 0-0.9-0.2-1.2-0.5l-3.8-4.4c-0.6-0.6-0.5-1.7 0.2-2.2c0.6-0.6 1.6-0.6 2.2 0.1l2.7 3.1l7-6.8c0.6-0.6 1.6-0.6 2.2 0c0.6 0.6 0.6 1.6 0 2.3l-8.2 7.9c-0.3 0.3-0.7 0.5-1.1 0.5z" /><path class="s11" d="m1024.1 300.9c0 4-3.3 7.2-7.3 7.2c-4 0-7.2-3.2-7.2-7.2c0-4 3.2-7.3 7.2-7.3c4 0 7.3 3.3 7.3 7.3z" /><path class="s11" d="m930.3 323c0 4-3.2 7.2-7.2 7.2c-4 0-7.3-3.2-7.3-7.2c0-4 3.3-7.3 7.3-7.3c4 0 7.2 3.3 7.2 7.3z" /><path class="s11" d="m972.3 410.8h-147.8c-1.4 0-2.5-1.1-2.5-2.5v-82.4c0-1.3 1.1-2.5 2.5-2.5h147.8c1.4 0 2.5 1.2 2.5 2.5v82.4c0 1.4-1.1 2.5-2.5 2.5z" /><path class="s6" d="m969.1 407h-141.4c-1.3 0-2.4-1.1-2.4-2.4v-75c0-1.3 1.1-2.3 2.4-2.3h141.4c1.3 0 2.4 1 2.4 2.3v75c0 1.3-1.1 2.4-2.4 2.4z" /><path class="s11" d="m964.8 402.1h-132.8c-1.5 0-2.6-1.2-2.6-2.6v-64.7c0-1.5 1.1-2.6 2.6-2.6h132.8c1.4 0 2.6 1.1 2.6 2.6v64.7c0 1.4-1.2 2.6-2.6 2.6z" /><path class="s6" d="m922.7 367.1c0 13.4-10.9 24.3-24.3 24.3c-13.4 0-24.3-10.9-24.3-24.3c0-13.4 10.9-24.2 24.3-24.2c13.4 0 24.3 10.8 24.3 24.2z" /><path class="s11" d="m919.3 367.1c0 11.6-9.4 20.9-20.9 20.9c-11.5 0-20.9-9.3-20.9-20.9c0-11.5 9.4-20.9 20.9-20.9c11.5 0 20.9 9.4 20.9 20.9z" /><path class="s6" d="m908.7 366l-7.6 4.4l-7.7 4.4v-8.8v-8.8l7.7 4.4z" /><path class="s11" d="m812.3 114h-95.6c-2.4 0-4.3-1.9-4.3-4.3c0-2.4 1.9-4.3 4.3-4.3h95.6c2.4 0 4.3 1.9 4.3 4.3c0 2.4-1.9 4.3-4.3 4.3z" /><path class="s11" d="m1062.1 481.2h-95.6c-2.4 0-4.3-2-4.3-4.4c0-2.4 1.9-4.3 4.3-4.3h95.6c2.4 0 4.3 1.9 4.3 4.3c0 2.4-1.9 4.4-4.3 4.4z" /><path class="s11" d="m1062.1 497.1h-95.6c-2.4 0-4.3-2-4.3-4.3c0-2.4 1.9-4.4 4.3-4.4h95.6c2.4 0 4.3 2 4.3 4.4c0 2.3-1.9 4.3-4.3 4.3z" /><path class="s11" d="m1062.1 514.5h-95.6c-2.4 0-4.3-2-4.3-4.4c0-2.4 1.9-4.3 4.3-4.3h95.6c2.4 0 4.3 1.9 4.3 4.3c0 2.4-1.9 4.4-4.3 4.4z" /><path class="s11" d="m873.8 130.7h-157.1c-2.4 0-4.3-2-4.3-4.3c0-2.4 1.9-4.4 4.3-4.4h157.1c2.4 0 4.4 2 4.4 4.4c0 2.3-2 4.3-4.4 4.3z" /><path class="s14" d="m195.5 371.5c-25 22.8-14.2 45.6 4.3 88q18.5 42.3 21.7 198.7l-15.2-2.1q2.2-160.8-18.5-204.2c-20.6-43.5-29.3-65.2-47.7-51.1q-18.5 14.1 55.4-29.3z" /><path class="s13" d="m167.7 417.5c-8.1 21.1-53.5 31.9-93.3 9.1c-5.7-21.7 76.3-27 66.7-35.5c-9.7-8.7-48.8 11.9-64 18.4c-4.9 2.1-14 2.1-24.5 0.1c-5.5-5.6-10.6-12-15.3-19.5c-7.4-11.7-13.4-21.9-18.3-31c15.1 3.4 33.9 9 45 3.7c22.8-10.8 7.6-11.9-24.9-15.2c-12.4-1.2-23-5.4-31.2-11.3c-14.4-34.4-4.8-44.5 9.5-55.8c9.2-7.3 24.8-9.8 43.3-8.8c24.6 21.2 43.2 62.6 49 58.5c7.6-5.4-10.9-19.5-25-55.4q-0.1-0.1-0.1-0.2c25 4.5 52.2 13.5 74.9 24.5c6.2 25.1-8.3 70.6 7.7 61.5c11.9-6.6 0.4-39.2-3.2-59.2c24.1 12.4 42.1 27.1 45.2 40.6c9.1 40.7-30.7 47.3-41.5 75.5z" /><path class="s14" d="m127 496.4c43.5-32.6 88-2.2 110.8 32.6q22.8 34.7 6.5 112.9q-8.7 0-8.7-3.2c0-3.3 23.9-92.3-32.5-132.5c-35.4-25.2-60.9-13.1-64.1-1.1q-3.3 11.9 14.1 33.7z" /><path class="s13" d="m226.9 435.9c-4.3 0-28.2 7.6-38 53.3q-9.7 45.6 31.5 147.7l-10.8 10.8q-16.3-72.7-28.3-111.8c-11.9-39.1 2.2-106.5 45.6-106.5q4.4 6.5 0 6.5z" /><path class="s14" d="m201.4 581.5q-0.2 2.7-0.6 5c-1.2 6.6-1.9 10.9-2.4 13.7c-5.3-21.7-11.6-46.5-17.1-64.3q-1.3-4.5-2.2-9.3c4.6 2.2 8.4 5.5 11.4 9.6c2.6 15 6.7 30.8 10.9 45.3z" /><path class="s13" d="m167.4 590c-37.5-8.4-51.6-66-50.6-48c1.1 19.6 36.9 33.7 31.5 56.5c-1.6 6.7-6.8 11.9-13.7 15.7c-17.2 4.3-35.2 6.9-51.5 7.2c-3-9.4 18.7-46.5 2.2-53.3c-17.2-7.1-3.3 44.2-14.5 53.1c-9.8-0.7-18.6-2.4-25.7-5.3c-36.1-15-28.5-58.2-11.4-91c4.6-1.6 10.1-2.7 16.8-3.5c35.9-4.4 43.5-21.7 21.7-18.5c-8.7 1.3-16.5 0-23-1.8c6.2-7.7 12.5-13.3 17.6-15.6c72.8-31.5 29.3 16.2 111.8 51c38.6 16.2 22.6 37.7-11.2 53.5z" /><path class="s13" d="m254.8 518.1c-38.8 1.6-71.3-22.4-43.2-63.5q10.3-15.1 8.8-24.8c16.4-22.8 38.7-32.3 61-33.5c-25.9 14.9-32.2 39.9-4.9 24.4c18.6-10.5 30.4-17.4 43.2-18.7c28.3 9.7 50.3 30.2 50.3 48.2c0 13.3-8.9 25.3-22.1 35.3c-22-15.4-49.3-46.1-64.8-40.9c-19.6 6.6 43.4 22.8 53.2 42.4c0.9 1.9 1.2 3.8 0.9 5.7c-22.7 13.5-52.8 22.5-75 24.9c-12.8-8.3-12.7-38.7-11.7-51.2c1.1-14.2-21.7-9.8-13.1 8.6c6.1 12.8 15.2 32.3 17.4 43.1z" /><path class="s14" d="m136.9 497.3q-3.3 4.4 2.5 16q-10.2 2.9-28.5 5.8c-18.4 2.9-34.3 17.8-58.4 30.4q-24.2 12.5-19.8 49.2q-5.8-42.5 23.1-55.5c29-13 52.6-32.2 73.8-48.6q10.7-1.6 7.3 2.7z" /><path class="s14" d="m24.9 301.8c77.8 20.8 134.7 70.5 145.4 82.6q10.6 12 10.6 15.4l-8.2 15.5l-3.9-2q6.3-13-10.1-29.9c-28.3-29.1-62.8-52.1-86.4-62.3q-23.7-10.1-47.4-19.3z" /><path class="s12" d="m239.5 732h-29.7c-21.1 0-38.2-17.1-38.2-38.2v-68.2h106.1v68.2c0 21.1-17.1 38.2-38.2 38.2z" /></svg>