<svg version="1.2" xmlns="http://www.w3.org/2000/svg" viewBox="0 0 1238 722" width="1238" height="722"><style>.s0{fill:#e7f3fe}.s1{fill:#303c60}.s2{fill:#f09959}.s3{fill:#6791c9}.s4{fill:#75a1de}.s5{opacity: .5;fill:#6791c9}.s6{fill:#e38540}.s7{fill:#f5ce5c}.s8{fill:#4381db}.s9{fill:#2e5b9a}.s10{fill:#9cbeed}.s11{fill:#ffffff}.s12{fill:#dbe5eb}.s13{fill:#f37168}.s14{fill:#f2e5de}.s15{fill:#7bcee8}.s16{fill:#9ec8ff}.s17{fill:#9cd499}.s18{fill:#74b570}.s19{fill:#a2dff2}</style><path class="s0" d="m172.1 708.5q-288.1-181.1-91.2-375.1c197-194.1 460.5-392.5 637.2-315.7c176.7 76.7 160.8 173.8 354.9 314.2c194 140.5 149.1 252 114.4 308.5q-34.8 56.5-40.6 71z" /><path class="s1" d="m392.3 194.6c42.6-38 74-15.3 97.3 10c18.6 20.2 21.2 24.7 36.6 45.6c2.3 3.1 4 6.6 4.1 10.4c0.4 23.2 12.3 121-0.9 154.7q-15.3 39.4-204.5 57.4z" /><path class="s1" d="m513.4 437.7c-1 0-1.9-0.8-1.9-1.8c-0.1-1.1 0.7-2 1.8-2.1c5.6-0.2 10.2-2.8 14-7.7c21.2-27.4 9.3-119.2-1.1-169.1c-0.3-1 0.4-2 1.5-2.3c1-0.2 2.1 0.5 2.3 1.5c2.3 10.9 9.8 49.6 12.2 89.9c2.4 41.3-1.5 69.1-11.8 82.4c-4.5 5.8-10.2 8.9-16.9 9.2q0 0-0.1 0z" /><path class="s1" d="m401.6 623.4c-37.3 58.7-150.8 72.9-188.7 6.7c-58-101.4 30.5-178.3 59.3-193.4c104.1-54.7 54.1-208.1 136.1-253.4q30.6 381.4-6.7 440.1z" /><path class="s1" d="m190 532q-0.1 0-0.3 0c-1-0.2-1.8-1.2-1.6-2.2c0-0.6 1.8-13.5 10-30.6c7.5-15.8 22.2-38.1 49.1-55.3c48.1-30.6 80.1-59.5 117.8-201.8c0.3-1 1.4-1.6 2.4-1.3c1.1 0.2 1.7 1.3 1.4 2.3c-18.2 68.8-36.3 115.3-56.9 146.3c-19.2 28.8-38.9 42.7-62.6 57.8c-50 31.8-57.3 82.6-57.4 83.1c-0.1 1-0.9 1.7-1.9 1.7z" /><path class="s1" d="m191.8 492.3q-0.5 0-1-0.3c-0.9-0.6-1.2-1.8-0.6-2.7c11.8-18.9 27-34.3 45-45.9c67.6-43.7 78.8-68.9 134.6-212.8c0.4-1 1.5-1.5 2.5-1.1c1 0.4 1.5 1.5 1.1 2.5c-27.9 72-44.6 114.1-62.8 144c-19.6 32.1-41.7 50.2-73.3 70.7c-17.5 11.3-32.3 26.3-43.8 44.7c-0.4 0.5-1.1 0.9-1.7 0.9z" /><path class="s2" d="m439.1 314.8c-6.5 15.2-11.9 57.6-10.9 75c1.1 17.4-17.3 30.4-30.4 26q-13-4.3-16.3-24.9q-4.3-53.3 23.9-111.9q40.2 20.6 33.7 35.8z" /><path class="s3" d="m279.4 643.8l28.4 52.9q-25.3 9.8-39.6 7.1c-14.2-2.6-10.2-1.3-12-17.3z" /><path class="s2" d="m407 404.4q-81.1 62-90.1 109q-9 47-2 139q112.1 50 100.1 54c-12 4-144.1 0-152.1-10c-8-10-12-73-9-152c3-79 21-167 42-173c21-6 81.1 14 89.1-12z" /><path class="s2" d="m413 367.4c21 32 76 28 95 54q19 26 59 169l42-145q34.1-5.7 23 18c-19.7 42.2-27 178.3-48.4 197.7c-23.7 21.5-47.3 4-60.6-33.7c-12.9-36.4-45-115-68-145q-23-30-48-78z" /><path class="s4" d="m321.9 371.4c42 49 124.1 47 142.1 41q18-6 18-6q14-5 26 9c12 14 41 102 46 122q5 20 13 53q-21.5 25.8-21.5 51.8q0 26 9.1 26.2q-26.6-6-32.6-22q-6-16-60-161l-149.1 3l2 164q-13-12-31 0c-18 12-24 40-21 44c3 4-6 4-6 1c0-3-17-76-5-196c12-120 35-133 48-134q13-1 22 4z" /><path class="s3" d="m548.5 666.3q0.3 0.1 0.5 0.1q-0.2 0-0.5-0.1z" /><path class="s3" d="m542.3 614c-5.3 19.4-8.7 36.7-0.7 44.1c1 0.8 6 3.2 6.9 4c1.5 4.3 3.3 5.5 4.1 5.7c-3-0.6-25.1-6.7-30.6-21.4c-4.1-10.8-29.9-80-46.3-124.1l11.9-68.3q10 100.7 43.4 173.4q14.6-30.7 23.3-33.4c8.7-2.6-6.7 0.7-12 20z" /><path class="s3" d="m312.9 488.4l2 164q-1-0.9-2.8-2c-6.2-5.1-15.2-17.7-21.2-66.4c-7.3-59.3-5.3-146 12.7-171.3l16.5 75.5z" /><path class="s4" d="m413 422.4l61 3q36.5 41.6 27.6 83.3c-11.3 53.3-2.6 128.7-0.6 147.7q2 19 48.2 47q-32.2 3-76.2 6q-44 3-79-6q-43.5-40.8-66.1-95c-40.3-97-25-113.7-55.7-196.4z" /><path class="s5" d="m326.3 538.7c-5.4-19.3 22.6 6 68.6 10.7c46 4.6 97.4-2.7 72.1 5.3c-25.4 8-94.7-4-82.1 21.3c14.9 29.9 32.6 58.7 58 76.1c16.7 11.3 56.7 22 18 16c-38.6-6-80-51.4-98-80.7c-18-29.4-35.5-44.4-36.6-48.7z" /><path class="s6" d="m453.2 393.9c-5.9 0.5-12.9 0.3-19.1-2.1c-14.5-5.5-44.7-33-34.6-99.3q1.9-4.8 4.1-9.5l9.6 0.4c11.3 6.9 30.6 20.5 25.9 31.4c-5.7 13.3-10.6 47.4-11 67.4c7.5 4.9 16.2 8.5 25.1 11.7z" /><path class="s7" d="m409.8 411.7c-3.5 0-7.1-0.4-10.6-1.3c-8.4-2-28.3-9.8-32.9-37.6c-0.1-0.6 0.3-1.1 0.9-1.2c0.6-0.1 1.2 0.3 1.3 0.9c4.4 26.5 23.3 33.8 31.2 35.7c12.3 3 25.3 0.3 30.4-6.4c4-5.4 1.6-16.8 1.5-16.9c-0.1-0.6 0.3-1.2 0.9-1.3c0.6-0.1 1.2 0.2 1.3 0.8c0.1 0.5 2.7 12.5-2 18.7c-4.1 5.5-12.5 8.6-22 8.6z" /><path class="s2" d="m503.9 305.1c-6.8 35.8-22.4 64.7-48.9 59.3c-26.6-5.5-54.4-43.3-47.1-79c7.3-35.7 34.8-60.3 61.3-54.8c26.5 5.4 43.8 26.8 34.7 74.5z" /><path class="s2" d="m593.6 578.4q-41.6 71.3-43 71.3c-1.3 0-6-8.6-3.6-22.3q2.3-13.7 51.3-145.4z" /><path class="s2" d="m600.3 476.2q4-13.3-2.2-30.2l17.8 2.2z" /><path class="s8" d="m619.8 453.5h-49.6c-3 0-5.1-2.9-4.3-5.8l31.3-105c0.6-1.9 2.4-3.2 4.4-3.2h49.6c3 0 5.1 2.9 4.3 5.8l-31.3 105c-0.6 1.9-2.4 3.2-4.4 3.2z" /><path class="s9" d="m626.1 453.5h-49.6c-3.1 0-5.2-2.9-4.4-5.8l31.4-105c0.5-1.9 2.3-3.2 4.3-3.2h49.6c3 0 5.2 2.9 4.3 5.8l-31.3 105c-0.6 1.9-2.3 3.2-4.3 3.2z" /><path class="s10" d="m601.4 343.3c0.8 0.3-2.7 15.9-8 35c-5.3 19-10.3 34.3-11.2 34c-0.9-0.2 2.7-15.9 8-34.9c5.2-19.1 10.3-34.3 11.2-34.1z" /><path class="s2" d="m619.6 467.5l-9.5 0.4q-10-2.8 1.8-15.2c14.2-15.1 30.2-38.7 8.9-30.2q-18 7.1-11.4-9.5q14-15.6 17.4-14.1q3.4 1.6 9.8 4.6q-3.4-34.1-0.7-35.6c2.6-1.5 8.3 37.5 10.6 40.5c1.8 2.4 2.2 22.8 2.2 31.4c0.1 2.4-0.9 4.6-2.7 6.2c-5.7 5.1-20.7 21.4-22.1 38.7z" /><path class="s7" d="m618.5 498.3c-1.6 0-3.4-0.2-5.1-0.8c-4.7-1.4-12.7-6.1-14.9-21c0-0.6 0.4-1.2 1-1.2c0.6-0.1 1.2 0.3 1.2 0.9c1.9 12.8 8 17.4 12.9 19.1c4 1.3 7.3 0.7 8.1 0.2c0.1-0.3 0.3-0.7 0.7-0.8c0.6-0.3 1.2 0 1.4 0.6c0.3 0.5 0.1 1.2-0.3 1.6c-0.8 0.9-2.7 1.4-5 1.4z" /><path class="s7" d="m616.6 494c-1.4 0-3-0.1-4.4-0.3c-8.6-1.2-14.4-5.6-15.8-11.9c-0.1-0.6 0.2-1.2 0.8-1.4c0.6-0.1 1.2 0.3 1.4 0.9c1.3 6 6.8 8.6 11.2 9.7c6.1 1.5 11.9 0.6 12.6-0.2c0.3-0.5 0.9-0.7 1.5-0.4c0.5 0.3 0.7 1 0.4 1.5c-0.8 1.5-4.1 2.1-7.7 2.1z" /><path fill-rule="evenodd" class="s11" d="m473.5 323.7q-0.8 0-1.6-0.1c-8.4-1.3-13.5-12.1-11.6-24.7c0.9-5.8 3.2-11.1 6.5-14.9c3.5-4 7.8-5.9 11.9-5.2c8.4 1.3 13.5 12.1 11.6 24.7c-1.8 11.7-9 20.2-16.8 20.2zm3.6-41.1c-2.5 0-5.1 1.4-7.4 4c-2.8 3.2-4.8 7.8-5.6 12.9c-1.5 10 2.3 19.3 8.4 20.3c6 0.9 12.4-6.8 14-16.9c1.5-10.1-2.3-19.3-8.4-20.3q-0.5 0-1 0z" /><path fill-rule="evenodd" class="s11" d="m501.2 323.8q-0.4 0-0.8-0.1c-5.5-0.8-8.5-10.1-6.8-21.2c1.7-11.1 7.4-19.1 12.9-18.3c2.8 0.5 5.1 3.1 6.3 7.4c1.1 3.9 1.3 8.8 0.5 13.9c-1.6 10.5-6.8 18.3-12.1 18.3zm4.5-36.7c-3.3 0-7.7 6.3-9.2 15.8c-1.5 9.9 1.1 17.4 4.4 17.9c3.3 0.5 8-5.8 9.5-15.8c0.7-4.6 0.5-9.1-0.5-12.6c-0.8-3.1-2.3-5-3.9-5.2q-0.1-0.1-0.3-0.1z" /><path class="s11" d="m464.3 290.6q-0.3 0-0.6-0.1l-65.3-18.6c-1-0.3-1.6-1.4-1.3-2.5c0.3-1 1.3-1.6 2.4-1.3l65.3 18.7c1.1 0.3 1.7 1.4 1.4 2.4c-0.3 0.8-1.1 1.4-1.9 1.4z" /><path class="s1" d="m511 250q-101.2 59.5-106.7 19.5l6-56.9l60 3.4z" /><path class="s2" d="m412.1 282.8c2.3 10-0.9 19.4-7.2 20.9c-6.3 1.4-13.3-5.5-15.7-15.6c-2.3-10.1 0.9-19.4 7.2-20.9c6.3-1.5 13.3 5.5 15.7 15.6z" /><path class="s7" d="m405.2 296c0 2.2-1.8 4-4 4c-2.2 0-4-1.8-4-4c0-2.2 1.8-4 4-4c2.2 0 4 1.8 4 4z" /><path class="s9" d="m1185.3 721.5h-1011.6c-5.1 0-9.3-4.1-9.3-9.2c0-5.1 4.2-9.3 9.3-9.3h1011.6c5.2 0 9.3 4.2 9.3 9.3c0 5.1-4.1 9.2-9.3 9.2z" /><path class="s12" d="m496.1 701.2l106.6 2q-44.4 10.6-45.8 11.5c-1.5 1-153.5 0-167-2.4c-13.6-2.4-15.5-3.8-15-7.2q0.5-3.4 38.6-3.9z" /><path class="s2" d="m434.3 675.8q27.3-12 35.3-6.6q8 5.3 31.1 29.8z" /><path class="s9" d="m499.2 701.1c-0.5 0.7-1.3 1-1.7 0.6l-56.3-41.8c-3-2.3-4.4-5.8-3-7.6c1.5-1.8 5.2-1.1 8 1.3l53.2 45.7c0.4 0.4 0.3 1.2-0.2 1.8z" /><path class="s2" d="m351.6 670.7q45.3 18 50.7 18c5.3 0 35.1-20 45.1-17.3c10 2.7 58.9 27.3 57.6 29.3c-1.4 2-15.4 6.7-56.7 5.4q-41.4-1.4-108.7-7.4z" /><path class="s13" d="m919 703.8h-184.8c-2.7 0-5-2.3-5-5v-29.1c0-2.8 2.3-5 5-5h184.8c6.9 0 12.5 5.6 12.5 12.5v14.1c0 6.9-5.6 12.5-12.5 12.5z" /><path class="s14" d="m916 682.6v3.2c0 6.3-5.1 11.4-11.3 11.4h-175.5c-1.2-2.1-1.9-4.5-1.9-7v-11.9c0-2.6 0.7-5 1.9-7h175.5c6.2 0 11.3 5.1 11.3 11.3z" /><path class="s15" d="m912.8 664.7h-140.5c-1.9 0-3.4-1.5-3.4-3.4v-16.9c0-1.9 1.5-3.4 3.4-3.4h140.5c4.6 0 8.4 3.8 8.4 8.4v6.9c0 4.6-3.8 8.4-8.4 8.4z" /><path class="s14" d="m909.6 651.9v1.9c0 3.8-3.8 6.9-8.5 6.9h-132.2c-0.9-1.3-1.4-2.7-1.4-4.2v-7.3c0-1.5 0.5-2.9 1.4-4.2h132.2c4.7 0 8.5 3.1 8.5 6.9z" /><path class="s16" d="m936.8 162.7h-149.8c-4.8 0-7.3-3.9-5.6-8.7l22.7-62.2c1.7-4.8 7.1-8.7 11.9-8.7h149.8c4.8 0 7.3 3.9 5.6 8.7l-22.7 62.2c-1.7 4.8-7.1 8.7-11.9 8.7z" /><path class="s11" d="m931.8 156.2h-135c-4.2 0-6.3-3.4-4.8-7.5l18.8-51.6c1.5-4.1 6.1-7.5 10.2-7.5h135c4.2 0 6.3 3.4 4.8 7.5l-18.8 51.6c-1.5 4.1-6.1 7.5-10.2 7.5z" /><path class="s16" d="m846.4 159.1q-12.4 32.8-31.5 43q13.6-18.8 11.6-28q-2-9.2-9.2-13.1z" /><path class="s16" d="m942.6 107.9h-87c-1.4 0-2.2-1.1-1.7-2.5l0.1-0.2c0.5-1.4 2.1-2.6 3.5-2.6h87c1.5 0 2.2 1.2 1.7 2.6v0.2c-0.6 1.4-2.2 2.5-3.6 2.5z" /><path class="s16" d="m938.6 119h-87c-1.5 0-2.2-1.1-1.7-2.5l0.1-0.2c0.5-1.4 2.1-2.6 3.5-2.6h87c1.4 0 2.2 1.2 1.7 2.6l-0.1 0.2c-0.5 1.4-2.1 2.5-3.5 2.5z" /><path class="s16" d="m934 131.6h-87c-1.4 0-2.2-1.2-1.7-2.6l0.1-0.1c0.5-1.4 2.1-2.6 3.5-2.6h87c1.5 0 2.2 1.2 1.7 2.6l-0.1 0.1c-0.5 1.4-2.1 2.6-3.5 2.6z" /><path class="s16" d="m842 116.9c-3.4 9.4-12.5 17.1-20.2 17.1c-7.7 0-11.2-7.7-7.8-17.1c3.5-9.5 12.5-17.2 20.3-17.2c7.7 0 11.2 7.7 7.7 17.2z" /><path class="s16" d="m851.7 324.7h-7.5c-1.5 0-2.4-1.3-1.8-2.9l2.2-6.1c0.6-1.5 2.4-2.8 3.9-2.8h7.4c1.6 0 2.4 1.3 1.9 2.8l-2.3 6.1c-0.5 1.6-2.3 2.9-3.8 2.9z" /><path class="s16" d="m875.5 324.7h-7.4c-1.6 0-2.4-1.3-1.8-2.9l2.2-6.1c0.6-1.5 2.3-2.8 3.9-2.8h7.4c1.6 0 2.4 1.3 1.8 2.8l-2.2 6.1c-0.6 1.6-2.3 2.9-3.9 2.9z" /><path class="s16" d="m899.3 324.7h-7.4c-1.6 0-2.4-1.3-1.8-2.9l2.2-6.1c0.6-1.5 2.3-2.8 3.9-2.8h7.4c1.6 0 2.4 1.3 1.8 2.8l-2.2 6.1c-0.6 1.6-2.3 2.9-3.9 2.9z" /><path class="s16" d="m757.2 277.6h-149.9c-4.8 0-7.2-3.9-5.5-8.7l22.7-62.2c1.7-4.8 7-8.7 11.8-8.7h149.9c4.8 0 7.3 3.9 5.5 8.7l-22.6 62.2c-1.8 4.8-7.1 8.7-11.9 8.7z" /><path class="s11" d="m752.1 271.1h-134.9c-4.2 0-6.3-3.4-4.8-7.5l18.7-51.6c1.5-4.1 6.2-7.5 10.3-7.5h135c4.1 0 6.3 3.4 4.8 7.5l-18.8 51.6c-1.5 4.1-6.1 7.5-10.3 7.5z" /><path class="s16" d="m642.7 275.9q-10.1 3.9-18.7 13.1q-8.7 9.1-8.8 28q-11.7-10.2-0.3-43z" /><path class="s16" d="m715.5 227.2h-73.4c-1.3 0-2-1.1-1.5-2.4l0.1-0.5c0.5-1.4 2-2.4 3.3-2.4h73.4c1.3 0 2 1 1.6 2.4l-0.2 0.5c-0.5 1.3-2 2.4-3.3 2.4z" /><path class="s16" d="m711.5 238.3h-73.5c-1.3 0-2-1.1-1.5-2.4l0.2-0.5c0.5-1.4 2-2.4 3.3-2.4h73.4c1.3 0 2 1 1.5 2.4l-0.2 0.5c-0.5 1.3-1.9 2.4-3.2 2.4z" /><path class="s16" d="m706.9 250.8h-73.4c-1.3 0-2-1-1.6-2.4l0.2-0.5c0.5-1.3 2-2.4 3.3-2.4h73.4c1.3 0 2 1.1 1.5 2.4l-0.2 0.5c-0.4 1.4-1.9 2.4-3.2 2.4z" /><path class="s16" d="m893.7 348.1h-144.6c-2.6 0-4-1.1-3-2.4l0.4-0.5c0.9-1.3 3.8-2.4 6.4-2.4h144.7c2.5 0 3.9 1.1 3 2.4l-0.4 0.5c-1 1.3-3.9 2.4-6.5 2.4z" /><path class="s16" d="m885.8 366.4h-144.7c-2.6 0-3.9-1-3-2.3l0.4-0.6c0.9-1.3 3.8-2.4 6.4-2.4h144.7c2.6 0 3.9 1.1 3 2.4l-0.4 0.6c-0.9 1.3-3.8 2.3-6.4 2.3z" /><path class="s16" d="m741 255.2h-10.6c-4.8 0-7.3-3.9-5.5-8.7l7.9-21.7c1.7-4.8 7-8.7 11.8-8.7h10.6c4.8 0 7.3 3.9 5.6 8.7l-7.9 21.7c-1.8 4.8-7.1 8.7-11.9 8.7z" /><path class="s17" d="m1107.2 669.8q12.3-71.9 8.7-95.2c-3.6-23.4-11.8-49.1-72.9-106.6c-61-57.4-63.6-175.8-44.1-222.9c19.5-47.1 24.4 113.6 76 199.9c51.7 86.4 55.9 124.2 36.6 230z" /><path class="s18" d="m1115.9 601.7c0.8-11 1-20.8 0-27.1c-3.6-23.4-11.8-49.1-72.9-106.6c-61-57.4-63.6-175.8-44.1-222.9q1.5-3.7 2.9-5.7l4.4-2.7q0.5 0.2 1 0.5c-13.2 15.4-21.9 62.7-6 98.4c12.1 26.9 30.5 60.1 42 102.8c11.6 42.7 52.9 76.7 62.3 96.3c8.5 17.6 14.6 62.2 15.7 70.9q0 0.6 0 1.2z" /><path class="s17" d="m1085.1 656.3c14.4-124.3 9.6-167.3-18.1-266.8c-27.8-99.4 153-326.1 147.2-286.9c-5.7 39.2-24.8 136.8-74.5 198c-49.8 61.2-53.6 110.9-44 163.5q9.5 52.6-1.9 175l-5.8 22z" /><path class="s18" d="m1091.8 604.7q-0.1 0-0.1 0c-0.7-0.1-1.2-0.6-1.1-1.3c0-0.4 1.4-38.7 0.7-70.1c-0.7-31.5-9.3-85.5-14.5-104c-4.7-16.9-10.6-73.5 18.2-131.9c14.4-29.1 25.9-47.5 41.7-73c15.7-25.2 35.3-56.5 66.2-111.7c0.4-0.6 1.1-0.8 1.7-0.5c0.6 0.3 0.8 1.1 0.4 1.6c-31 55.3-50.5 86.6-66.2 111.8c-15.9 25.5-27.3 43.8-41.6 72.8c-28.5 57.8-22.7 113.6-18.1 130.2c5.3 18.7 13.9 73 14.6 104.6c0.7 31.5-0.7 69.9-0.7 70.3c-0.1 0.7-0.6 1.2-1.2 1.2z" /><path class="s17" d="m1089.9 701c8.6-83.2 10.1-42.2-25.7-155.2c-40.9-129.4 105.1-244.3 129-197.4c23.9 46.9 51.6 194.1 41.1 189.3c-10.5-4.7-80.3-141.5-82.2-135.7c-1.9 5.7-94.7 53.5-90.9 102.3q3.9 48.7 39.3 126.2l-1 71.4z" /><path fill-rule="evenodd" class="s18" d="m1099.5 701q-0.1 0-0.1 0l-9.6-1c-0.3 0-0.6-0.2-0.8-0.4c-0.2-0.3-0.3-0.6-0.3-0.9c1-9.6 1.9-17.7 2.7-24.2c4-35.3 4-35.3-7-65.6c-4.9-13.7-11.7-32.4-21.3-62.8c-7.2-22.7-9-46.2-5.5-69.9c3.1-20.9 10.3-41.5 21.3-61.2c18.9-33.9 48.7-62.9 75.9-74.1c18.9-7.7 33.3-5.2 39.5 7c10.1 19.8 22.3 60.6 32.4 108.9c5.9 27.9 14.5 76.5 9.6 81.6c-0.6 0.7-1.6 0.9-2.5 0.4c-5.7-2.6-24.7-36.1-50.9-83.2c-13.2-23.6-26.7-47.9-30.4-52.1c-1.5 1.6-5.2 4.2-12.9 9.4c-26 17.6-80.1 54.3-77.2 91.3c3.8 48 38.8 125 39.1 125.8q0.2 0.3 0.2 0.5l-1 69.3c0 0.3-0.2 0.6-0.4 0.9q-0.4 0.3-0.8 0.3zm-8.3-3.3l7.1 0.8l0.9-67.7c-2.2-4.9-35.5-79.4-39.2-126.4c-3-38.4 51.9-75.6 78.2-93.5c6.3-4.2 12.2-8.2 12.8-9.4c0.1-0.5 0.6-0.9 1.2-0.9c2.3-0.2 6.9 7.3 32.8 53.9c18.6 33.3 44 79 49.7 82.1c0.4-0.7 1.7-4.6-0.8-24.8c-1.8-14.6-5.2-33.8-9.4-54.1c-10.2-48.3-22.3-89-32.4-108.8c-5.5-10.8-18.8-12.9-36.4-5.7c-47.7 19.5-120.7 106.2-90.3 202.2c9.6 30.3 16.3 49 21.3 62.7c11.1 30.8 11.1 30.8 7.1 66.7c-0.8 6.5-1.6 13.9-2.6 22.9z" /><path class="s15" d="m1120 704.4h-43.4c-3 0-5.7-1.7-5.9-3.8l-14.6-109.6c-0.7-5 2.6-9.3 7.4-9.3h69.5c4.8 0 8.2 4.3 7.5 9.3l-14.6 109.6c-0.3 2.1-2.9 3.8-5.9 3.8z" /><path class="s19" d="m1114.8 700.7h-6.2c-3 0-5.5-1.8-5.4-4l2.2-94.7c0.1-4.7 4-8.7 8.6-8.7h9.4c4.6 0 8 4 7.5 8.7l-10.1 94.7c-0.2 2.2-2.9 4-6 4z" /><path class="s18" d="m1062.7 516.2c1.5 9.4 3.8 19.5 6.6 29.7l-0.7 1.3q-4.4-13.1-5.9-31z" /><path class="s18" d="m1152.7 400.7l-0.8 1.6c-4.7 6.4-76 44.4-88.8 86.5c0.9-7.3 2.7-14.6 5.5-21.7c14.5-36.2 57.3-73.9 84.1-66.4z" /><path class="s18" d="m1234.4 535.2c-0.5 0-1-0.4-1.2-1l-12.9-52.7c-10.1-41.3-22.7-92.7-36.9-115.6c-2.3-3.8-12.5-8.9-26.9-7.9c-19.5 1.4-57.1 14.9-89.7 89.5c-0.3 0.7-1 0.9-1.6 0.7c-0.6-0.3-0.9-1-0.6-1.6c33.1-75.9 71.7-89.6 91.7-91c15.6-1.1 26.4 4.6 29.2 9c14.3 23.2 26.4 72.7 37.1 116.3l13 52.8c0.1 0.6-0.3 1.3-0.9 1.4q-0.2 0.1-0.3 0.1z" /><path class="s18" d="m1196.4 466.4q-0.1 0-0.2 0c-0.6-0.1-1.1-0.7-1-1.4c0-0.4 4.9-43.7-6.5-89.3c-0.2-0.7 0.2-1.3 0.9-1.5c0.6-0.1 1.3 0.2 1.4 0.9c11.5 46 6.6 89.8 6.6 90.2c-0.1 0.6-0.6 1.1-1.2 1.1z" /><path class="s18" d="m1183 439.6q-0.1 0-0.2 0c-0.6-0.1-1.1-0.7-1-1.4c0-0.4 4.6-40 1.4-72.8c0-0.7 0.5-1.3 1.1-1.4c0.7 0 1.3 0.5 1.3 1.1c3.3 33.1-1.4 73-1.4 73.4c-0.1 0.6-0.6 1.1-1.2 1.1z" /><path class="s18" d="m1137.4 226.7c-0.5 0-0.9-0.3-1.1-0.7c-0.3-0.6 0-1.3 0.5-1.6c0.4-0.2 34.7-16.9 54.5-53.8c0.4-0.6 1.1-0.8 1.7-0.5c0.6 0.3 0.8 1.1 0.5 1.7c-20.3 37.5-55.3 54.6-55.6 54.8q-0.3 0.1-0.5 0.1z" /><path class="s18" d="m1112 270.1c-0.5 0-1-0.4-1.1-0.9c-0.2-0.7 0.2-1.3 0.9-1.4c0.3-0.1 28.4-6.1 61.7-33.1c0.6-0.4 1.3-0.3 1.7 0.2c0.4 0.5 0.4 1.2-0.1 1.7c-33.9 27.3-62.5 33.5-62.8 33.5q-0.2 0-0.3 0z" /><path class="s18" d="m1091.1 312.2q-0.8-0.1-0.9-0.1c-0.6 0-1.1-0.6-1.1-1.3c0.1-0.6 0.6-1.1 1.3-1.1c0.2 0.1 19.6 1.1 50.6-22.2c0.5-0.4 1.3-0.3 1.7 0.3c0.4 0.5 0.3 1.2-0.3 1.6c-28.5 21.4-47.1 22.8-51.3 22.8z" /></svg>